# xmcd CD database file
# Copyright (C) 1993-1998 Ti Kan
# 
# Track frame offsets:
#     150
#     23637
#     57071
#     81235
#     105801
#     123376
#     149473
#     167508
#     186167
# 
# Disc length: 2768 seconds
# 
# Revision: 1
# Processed by: cddbd v1.4b41PL1 Copyright (c) Steve Scherf et al.
# Submitted via: DiscPlay 4.0.4
# 
DISCID=690ace09
DTITLE=Whop Frazier - Bathtub Blues
DYEAR=1900
DGENRE=
TTITLE0=BeCool
TTITLE1=Bathtub Blues
TTITLE2=Blues Has Got's It's Hooks In Me
TTITLE3=Somebody's Been Pluckin' My Chickens
TTITLE4=Fat Roberta
TTITLE5=Wish I Never Loved You At All
TTITLE6=Hush, Hush - A Tribute To Jimmy Reed
TTITLE7=Funk The Blues
TTITLE8=Shake A Hand
EXTD=
EXTT0=
EXTT1=
EXTT2=
EXTT3=
EXTT4=
EXTT5=
EXTT6=
EXTT7=
EXTT8=
PLAYORDER=
